<svg xmlns="http://www.w3.org/2000/svg" viewBox="0 0 614.8 871.11"><defs><style>.cls-1{fill:#01bdec;}</style></defs><g id="Layer_2" data-name="Layer 2"><g id="Layer_2-2" data-name="Layer 2"><path class="cls-1" d="M560.63,233c-.62.24-1.23.45-1.84.67.14.62.28,1.24.41,1.87a337.61,337.61,0,0,1,7.34,67.56h48.22a306.48,306.48,0,0,0-17-96.9l-.33-.9C587.44,217.17,574.54,227.1,560.63,233Z"/><path class="cls-1" d="M566.55,308.1a338.83,338.83,0,0,1-7.58,69,80.16,80.16,0,0,1,35.18,20.5c1.9,1.9,3.67,3.88,5.34,5.91A307.17,307.17,0,0,0,614.8,308.1Z"/><path class="cls-1" d="M561.49,303.06a333.17,333.17,0,0,0-7.23-66.52c-.09-.45-.19-.88-.28-1.32a75.71,75.71,0,0,1-21.78,3.26c-19.67,0-36.69-7.85-53.32-15.51l-4.4-2-.11-.06c-35.88-18.58-64.16-42.34-98.89-72.81V463.6c32.49-28.24,62.32-52.91,93.75-70.09,25.33-14.84,50-21.39,73.17-19.45a88.81,88.81,0,0,1,11.68,1.76,333,333,0,0,0,7.42-67.72H398.8v-5Z"/><path class="cls-1" d="M496.39,503A327.73,327.73,0,0,0,553,380.74a85.57,85.57,0,0,0-11-1.66c-22.15-1.86-45.78,4.47-70.27,18.81C439.59,415.45,409,441,375.48,470.28V603.43A333.25,333.25,0,0,0,496.39,503Z"/><path class="cls-1" d="M557.86,382a332.93,332.93,0,0,1-57.42,124A338.5,338.5,0,0,1,382.5,605.56a308,308,0,0,0,215-196.4A74.82,74.82,0,0,0,557.86,382Z"/><path class="cls-1" d="M123,240.5l252.51-99.11c34.47,30.23,65.8,56.67,101.15,75l4.36,2c22.66,10.45,44.15,20.35,71.87,11.93a327.59,327.59,0,0,0-56.26-121.5A333.18,333.18,0,0,0,373.53,7.14,307.73,307.73,0,0,0,307.41,0H0V871.11H206.39V347.76L123,380.5Z"/><path class="cls-1" d="M500.65,105.82a332.74,332.74,0,0,1,57,122.87l1.08-.4c14-5.92,27-16.23,36.68-28.53a308.13,308.13,0,0,0-200.28-187A338.56,338.56,0,0,1,500.65,105.82Z"/></g></g></svg>